<svg width="1812" height="859" viewBox="0 0 1812 859" fill="none" xmlns="http://www.w3.org/2000/svg">
<path d="M459.5 803L619 475.5L606 445L429 803L453 858L470 825L459.5 803Z" fill="#DF3B31"/>
<path d="M1630 774L1642.5 802L748 803L790.5 719H819.5L895.5 573H734.5L643 754L680 789L690 802L459.5 803L619 475L606 445L429 803L325.5 802L409 630H334L254 789L264.5 802L288.5 858H22.5L0 802L95.5 622.5H97.5L137 663L250 445H606L619 475L705 313H712L754 371.5H847L810 449.5H932L942 467L1032 294H1039L1070 327L1153 328L1207.5 227H1019L942 266L1079 0H1086L1134 51H1426L1509 28L1531 88L1397 336L1412 346.5L1543.5 596L1624 447H1788L1812 502L1721 594.5L1630 774ZM1333.5 502L1412 346.5L1397 336L1317 492.5L1333 517L1247 515L1101 802L1142.22 802.559L1184.5 719L1442 719.5L1333.5 502Z" fill="#FEB433"/>
<path d="M918.5 513L922.5 522H897L932 449.5L942 467L918.5 513Z" fill="#DF3B31"/>
<path d="M896 803L921 858H770.5L748 803H896Z" fill="#C8281C"/>
<path d="M896 803L1041 523L1050.5 540L914 803H947L921 858L896 803Z" fill="#DF3B31"/>
<path d="M932 513L1064 514L1050.5 540L1041 523L922.5 522L918.5 513H932Z" fill="#8A120A"/>
<path d="M1667.5 858H1165.5L1142.5 802.5L1642.5 802L1667.5 858Z" fill="#C8281C"/>
<path d="M1198.5 719H1184.5L1142.5 802.5L1148.79 817L1127 858L1101 802L1246.87 515L1272 573L1198.5 719Z" fill="#DF3B31"/>
<path d="M1362 573H1272L1246.87 515L1333 517L1362 573Z" fill="#8A120A"/>
<path d="M1346 527L1342 534.5L1317 492.5L1397 336H1352L1509 28L1531 88L1397 336L1408.5 353L1333.5 502L1346 527Z" fill="#DF3B31"/>
<path d="M453 858L429.5 803L326 802L349 858H453Z" fill="#C8281C"/>
<path d="M734.5 573L760 630H865.815L896 573H734.5Z" fill="#8A120A"/>
<path d="M1812 502L1721 594.5L1630 774L1605 720.5L1697 535L1788 447L1812 502Z" fill="#DF3B31"/>
<path d="M1510 336L1535 394.5L1495.5 484L1470.5 436L1510 336Z" fill="#DF3B31"/>
<path d="M288.5 858H22.5L0 802H264.5L288.5 858Z" fill="#C8281C"/>
<path d="M714.5 859H482L459.5 803L690 802L714.5 859Z" fill="#C8281C"/>
<path d="M309 573L334 630L254 789L217 754L309 573Z" fill="#DF3B31"/>
<path d="M734.5 573L760 630L680 789L643 754L734.5 573Z" fill="#DF3B31"/>
<path d="M309 573H439L409 630H334L309 573Z" fill="#8A120A"/>
<path d="M1207.5 227L1177 285H1086L1039 286L963 318L942 265.5L1019 227H1207.5Z" fill="#8A120A"/>
<path d="M1470.5 436L1418 336H1445H1510L1470.5 436Z" fill="#FAAE37"/>
<path d="M878 426L867 449.5H810L847 371.5L878 426Z" fill="#DF3B31"/>
<path d="M914 803L1101 802L1127 858H936.5L914 803Z" fill="#C8281C"/>
</svg>
